<svg xmlns="http://www.w3.org/2000/svg" width="378.756" height="128.713" viewBox="0 0 378.756 128.713">
  <g id="Grupo_35" data-name="Grupo 35" transform="translate(-6.344 -9.287)">
    <path id="Trazado_135" data-name="Trazado 135" d="M105.537,46.387l-28.259-14.5,28.259-17.975Z" fill="#f9f"/>
    <path id="Trazado_136" data-name="Trazado 136" d="M105.825,13.389V46.86L76.7,31.918ZM77.86,31.864l27.389,14.049V14.442Z" fill="#fdc5ed" fill-rule="evenodd"/>
    <path id="Trazado_137" data-name="Trazado 137" d="M20.185,46.387l28.258-14.5L20.185,13.916Z" fill="#f9f"/>
    <path id="Trazado_138" data-name="Trazado 138" d="M19.9,13.389V46.86L49.025,31.918ZM47.861,31.864,20.473,45.913V14.442Z" fill="#fdc5ed" fill-rule="evenodd"/>
    <path id="Trazado_139" data-name="Trazado 139" d="M20.325,9.287a8.27,8.27,0,0,0-3.249,1.3,7.475,7.475,0,0,0-2.491,2.226A162.758,162.758,0,0,1,16.7,40.761,49.207,49.207,0,0,1,16.371,48a19.768,19.768,0,0,0,3.477.042,16.254,16.254,0,0,0,3.931-.832q-1.291-7.632-1.945-16.648-.582-9.06-.78-13.6,3.884,2.171,8.989,5.376A195.36,195.36,0,0,1,46.6,33.179a15.046,15.046,0,0,0,2.455-3.1,18.9,18.9,0,0,0,1.617-3.176,48.553,48.553,0,0,1-6.56-3A160.875,160.875,0,0,1,20.325,9.287Z" fill="#f22ef2"/>
    <path id="Trazado_140" data-name="Trazado 140" d="M104.675,9.287a8.273,8.273,0,0,1,3.249,1.3,7.476,7.476,0,0,1,2.491,2.226A162.694,162.694,0,0,0,108.3,40.761a49.027,49.027,0,0,0,.328,7.24,19.773,19.773,0,0,1-3.477.042,16.256,16.256,0,0,1-3.931-.832q1.292-7.632,1.945-16.648.582-9.06.78-13.6-3.885,2.171-8.99,5.376A195.361,195.361,0,0,0,78.4,33.179a15.046,15.046,0,0,1-2.455-3.1,18.9,18.9,0,0,1-1.617-3.176,48.553,48.553,0,0,0,6.56-3A160.889,160.889,0,0,0,104.675,9.287Z" fill="#f22ef2"/>
    <path id="Trazado_141" data-name="Trazado 141" d="M116.224,81.756a53.941,53.941,0,1,1-53.94-54.244A54.093,54.093,0,0,1,116.224,81.756Z" fill="#f9f" stroke="#f22ef2" stroke-width="4"/>
    <path id="Trazado_142" data-name="Trazado 142" d="M79.009,101.471c0-7.046-7.488-12.757-16.724-12.757S45.56,94.425,45.56,101.471s7.488,12.756,16.724,12.756S79.009,108.516,79.009,101.471Z" fill="#f9f"/>
    <path id="Trazado_143" data-name="Trazado 143" d="M72.716,94.3a8.446,8.446,0,0,1,0,14.345,17.3,17.3,0,0,1-10.432,3.265,17.3,17.3,0,0,1-10.432-3.265,8.446,8.446,0,0,1,0-14.345,17.294,17.294,0,0,1,10.432-3.265A17.294,17.294,0,0,1,72.716,94.3ZM62.284,88.714c9.237,0,16.724,5.711,16.724,12.757s-7.488,12.756-16.724,12.756S45.56,108.516,45.56,101.471,53.048,88.714,62.284,88.714Z" fill="#f22ef2" fill-rule="evenodd"/>
    <path id="Trazado_144" data-name="Trazado 144" d="M58.247,100.311a2.884,2.884,0,1,1-2.883-2.9A2.891,2.891,0,0,1,58.247,100.311Z" fill="#f22ef2"/>
    <path id="Trazado_145" data-name="Trazado 145" d="M71.511,100.311a2.884,2.884,0,1,1-2.883-2.9A2.891,2.891,0,0,1,71.511,100.311Z" fill="#f22ef2"/>
    <path id="Trazado_146" data-name="Trazado 146" d="M50.049,66.161a5.516,5.516,0,0,1,.387,2.282,4.961,4.961,0,0,1-.387,2.171A105.773,105.773,0,0,0,33.716,79.02a32.034,32.034,0,0,0-3.931,2.672,13.158,13.158,0,0,1-1.218-1.948,10.841,10.841,0,0,1-.886-2.5q4.706-1.893,9.965-4.62,5.26-2.783,7.862-4.23-2.547-1.447-6.09-3.229a128.335,128.335,0,0,0-11.737-5.622,9.948,9.948,0,0,1,.886-2.449,12.431,12.431,0,0,1,1.218-2,32.022,32.022,0,0,0,3.931,2.672A105.776,105.776,0,0,0,50.049,66.161Z" fill="#f22ef2"/>
    <path id="Trazado_147" data-name="Trazado 147" d="M74.08,70.614a4.961,4.961,0,0,1-.388-2.171,5.515,5.515,0,0,1,.388-2.282,100.823,100.823,0,0,0,16.277-8.405,31.3,31.3,0,0,0,3.986-2.672,10.6,10.6,0,0,1,1.163,2,8.94,8.94,0,0,1,.941,2.449q-4.208,1.67-10.408,4.9-6.145,3.228-7.419,3.952,2.6,1.447,7.862,4.23,5.26,2.727,9.965,4.62a9.7,9.7,0,0,1-.941,2.5,11.037,11.037,0,0,1-1.163,1.948,31.316,31.316,0,0,0-3.986-2.672A103.878,103.878,0,0,0,74.08,70.614Z" fill="#f22ef2"/>
    <path id="Trazado_148" data-name="Trazado 148" d="M191.8,30.409a17.025,17.025,0,0,1-2.083,8.332,15.392,15.392,0,0,1-6.4,6.026,22.526,22.526,0,0,1-10.713,2.306h-7.886V65.822H152V13.6h20.608a23.448,23.448,0,0,1,10.564,2.158,14.831,14.831,0,0,1,6.473,5.952A17.3,17.3,0,0,1,191.8,30.409Zm-20.161,6.547q3.645,0,5.431-1.711a6.383,6.383,0,0,0,1.785-4.836,6.383,6.383,0,0,0-1.785-4.836q-1.787-1.711-5.431-1.711h-6.919V36.956Z" fill="#3a3a3a"/>
    <path id="Trazado_149" data-name="Trazado 149" d="M211.147,13.6V65.822H198.425V13.6Z" fill="#3a3a3a"/>
    <path id="Trazado_150" data-name="Trazado 150" d="M255.035,30.111a9.251,9.251,0,0,0-4.091-3.943,14.076,14.076,0,0,0-16.07,2.678q-3.72,4.017-3.72,10.787,0,7.217,3.869,11.308,3.942,4.017,10.787,4.017a12.838,12.838,0,0,0,7.886-2.381,13.4,13.4,0,0,0,4.762-6.844H242.314V36.361h27.675V48.19a24.657,24.657,0,0,1-4.836,8.853,24.932,24.932,0,0,1-8.555,6.621,26.559,26.559,0,0,1-11.755,2.53,28.286,28.286,0,0,1-13.838-3.348,24.7,24.7,0,0,1-9.448-9.448,27.86,27.86,0,0,1-3.348-13.763,27.86,27.86,0,0,1,3.348-13.763,24.042,24.042,0,0,1,9.448-9.448A27.381,27.381,0,0,1,244.769,13q9.374,0,15.772,4.538A21.356,21.356,0,0,1,269.1,30.111Z" fill="#3a3a3a"/>
    <path id="Trazado_151" data-name="Trazado 151" d="M311.7,30.111a9.258,9.258,0,0,0-4.092-3.943,14.076,14.076,0,0,0-16.07,2.678q-3.72,4.017-3.72,10.787,0,7.217,3.869,11.308,3.944,4.017,10.787,4.017a12.841,12.841,0,0,0,7.887-2.381,13.4,13.4,0,0,0,4.761-6.844H298.983V36.361h27.675V48.19a24.668,24.668,0,0,1-4.835,8.853,24.935,24.935,0,0,1-8.556,6.621,26.559,26.559,0,0,1-11.755,2.53,28.282,28.282,0,0,1-13.837-3.348,24.7,24.7,0,0,1-9.449-9.448,27.86,27.86,0,0,1-3.348-13.763,27.86,27.86,0,0,1,3.348-13.763,24.044,24.044,0,0,1,9.449-9.448A27.377,27.377,0,0,1,301.438,13q9.374,0,15.772,4.538a21.362,21.362,0,0,1,8.556,12.573Z" fill="#3a3a3a"/>
    <path id="Trazado_152" data-name="Trazado 152" d="M378.492,13.6,360.414,48.562v17.26H347.692V48.562L329.613,13.6h14.433l10.118,21.873L364.208,13.6Z" fill="#3a3a3a"/>
    <path id="Trazado_153" data-name="Trazado 153" d="M211.722,123.7h16.665v9.821H199V81.3h12.722Z" fill="#3a3a3a"/>
    <path id="Trazado_154" data-name="Trazado 154" d="M266.966,124.3H247.474l-3.125,9.226H231.032l18.9-52.227H264.66l18.9,52.227H270.091Zm-3.273-9.82-6.473-19.12-6.4,19.12Z" fill="#3a3a3a"/>
    <path id="Trazado_155" data-name="Trazado 155" d="M320.926,106.74a12.083,12.083,0,0,1,7.291,4.538,12.629,12.629,0,0,1,2.753,8.035,12.892,12.892,0,0,1-4.613,10.415q-4.537,3.795-12.722,3.795H289.308V81.3h23.509q7.961,0,12.424,3.646a12.016,12.016,0,0,1,4.538,9.895,11.828,11.828,0,0,1-2.455,7.663A12.3,12.3,0,0,1,320.926,106.74Zm-18.9-4.315h8.332a7.364,7.364,0,0,0,4.761-1.339,5.749,5.749,0,0,0,0-8.184,7.087,7.087,0,0,0-4.761-1.413H302.03Zm9.374,20.831a7.522,7.522,0,0,0,4.91-1.414,5.21,5.21,0,0,0,1.785-4.24,5.331,5.331,0,0,0-1.86-4.315,7.319,7.319,0,0,0-4.984-1.563H302.03v11.532Z" fill="#3a3a3a"/>
    <path id="Trazado_156" data-name="Trazado 156" d="M144.7,108.9a8.864,8.864,0,0,1-.7-3.9,9.859,9.859,0,0,1,.7-4.1q12.4-4.7,29.4-15.1a56.509,56.509,0,0,0,7.2-4.8,19,19,0,0,1,2.1,3.6,16,16,0,0,1,1.7,4.4q-7.6,3-18.8,8.8-11.1,5.8-13.4,7.1,4.7,2.6,14.2,7.6,9.5,4.9,18,8.3a17.37,17.37,0,0,1-1.7,4.5,19.791,19.791,0,0,1-2.1,3.5,56.44,56.44,0,0,0-7.2-4.8Q157.4,113.8,144.7,108.9Z" fill="#3a3a3a"/>
    <path id="Trazado_157" data-name="Trazado 157" d="M384.4,100.9a9.858,9.858,0,0,1,.7,4.1,8.863,8.863,0,0,1-.7,3.9q-12.7,4.9-29.5,15.1a57.771,57.771,0,0,0-7.1,4.8,23.644,23.644,0,0,1-2.2-3.5,19.437,19.437,0,0,1-1.6-4.5q8.5-3.4,18-8.3,9.5-5,14.2-7.6-4.6-2.6-11-5.8A232.366,232.366,0,0,0,344,89a17.822,17.822,0,0,1,1.6-4.4,22.337,22.337,0,0,1,2.2-3.6,57.845,57.845,0,0,0,7.1,4.8Q371.7,96,384.4,100.9Z" fill="#3a3a3a"/>
  </g>
</svg>
